<?xml version="1.0" encoding="utf-8" ?><svg xmlns="http://www.w3.org/2000/svg" xmlns:xlink="http://www.w3.org/1999/xlink" width="512" height="512"><rect fill="#FFF" width="512" height="512" rx="112" ry="112"/><rect fill="#1B2E56" transform="matrix(1 0 0 1 116 116)" width="280" height="72" rx="8" ry="8"/><rect fill="#A8C5FF" transform="matrix(1 0 0 1 216 350)" width="80" height="46" rx="6" ry="6"/><rect fill="#6FA1FF" transform="matrix(1 0 0 1 216 296)" width="80" height="46" rx="6" ry="6"/><rect fill="#4C8DFF" transform="matrix(1 0 0 1 216 242)" width="80" height="46" rx="6" ry="6"/><rect fill="#2F6BFF" transform="matrix(1 0 0 1 216 188)" width="80" height="46" rx="6" ry="6"/><circle fill="#1B2E56" transform="matrix(1 0 0 1 246 201)" cx="10" cy="10" r="10"/></svg>